<?xml version="1.0" standalone="no"?>
<!DOCTYPE svg PUBLIC "-//W3C//DTD SVG 20010904//EN"
 "http://www.w3.org/TR/2001/REC-SVG-20010904/DTD/svg10.dtd">
<svg version="1.0" xmlns="http://www.w3.org/2000/svg"
 width="500.000000pt" height="500.000000pt" viewBox="0 0 500.000000 500.000000"
 preserveAspectRatio="xMidYMid meet">
<metadata>
Created by potrace 1.11, written by Peter Selinger 2001-2013
</metadata>
<g transform="translate(0.000000,500.000000) scale(0.100000,-0.100000)"
fill="#000000" stroke="none">
<path d="M2559 4301 c-74 -39 -176 -129 -184 -163 -4 -16 -13 -28 -20 -28 -9
0 -11 -7 -7 -22 4 -16 2 -19 -8 -13 -9 5 -11 4 -6 -4 9 -14 -12 -71 -26 -71
-5 0 -6 5 -2 12 4 7 3 8 -4 4 -9 -5 -7 -14 4 -32 16 -23 15 -24 -5 -24 -11 0
-21 -5 -21 -11 0 -6 7 -9 15 -5 17 6 21 -9 4 -19 -6 -5 -4 -12 8 -21 17 -13
17 -13 -2 -14 -19 -1 -19 -1 -2 -14 18 -14 23 -61 7 -71 -6 -3 -13 2 -17 11
-3 10 -14 25 -22 33 -9 9 -28 31 -42 50 -31 39 -39 36 -76 -22 -14 -23 -29
-44 -32 -47 -13 -10 -33 -97 -35 -145 -1 -27 -5 -56 -9 -62 -5 -8 -3 -13 3
-13 7 0 10 -7 6 -15 -3 -8 -1 -15 5 -15 7 0 9 -12 7 -29 -2 -17 -1 -28 3 -25
5 2 13 -5 19 -16 9 -16 8 -25 -1 -36 -14 -18 4 -44 32 -44 15 0 18 -7 17 -36
-1 -34 -2 -35 -16 -18 -8 11 -12 13 -10 5 2 -8 13 -19 23 -25 11 -6 25 -18 32
-26 7 -9 12 -10 13 -4 0 6 -7 18 -16 25 -14 12 -14 14 3 20 21 8 46 -8 36 -24
-4 -6 0 -8 10 -4 10 4 20 0 25 -9 5 -9 11 -15 13 -14 5 2 39 -9 66 -23 13 -6
26 -7 30 -2 5 4 2 10 -4 12 -7 3 -13 14 -13 24 0 11 -4 18 -8 15 -5 -3 -15 7
-23 22 -8 15 -18 30 -24 35 -6 4 -4 11 5 17 13 8 13 10 -2 10 -10 0 -22 16
-32 47 -20 59 -20 63 3 36 10 -12 21 -19 25 -16 11 11 6 23 -8 23 -8 0 -21 9
-29 20 -16 23 -17 71 -2 68 6 -2 9 -7 7 -11 -1 -5 2 -6 8 -2 5 3 22 -2 38 -13
33 -24 109 -33 116 -15 3 7 12 13 20 13 9 0 26 16 39 35 13 19 26 33 29 30 8
-9 2 98 -7 119 -7 16 -5 18 8 13 33 -12 127 -90 127 -104 0 -7 7 -16 16 -20 8
-3 13 -12 10 -20 -3 -8 -2 -12 2 -9 5 3 17 -16 28 -42 18 -45 19 -60 1 -54 -5
1 -6 -2 -2 -7 3 -6 12 -8 20 -4 11 4 15 -2 15 -22 0 -18 -4 -24 -12 -20 -7 4
-5 0 4 -8 14 -11 17 -26 13 -75 l-3 -62 31 17 c17 10 55 41 83 68 66 65 97
141 97 240 0 103 -30 171 -107 248 l-61 62 -3 -118 c-2 -88 -6 -117 -15 -114
-7 2 -11 10 -9 16 1 6 -4 11 -10 11 -14 0 -51 55 -88 128 -51 103 -74 281 -51
400 5 23 7 42 6 42 -1 0 -26 -13 -56 -29z m-409 -846 c0 -12 -19 -12 -23 0 -4
9 -1 12 9 8 7 -3 14 -7 14 -8z"/>
<path d="M2305 4040 c-3 -5 -1 -10 4 -10 6 0 11 5 11 10 0 6 -2 10 -4 10 -3 0
-8 -4 -11 -10z"/>
<path d="M2273 3879 c1 -14 7 -26 14 -26 8 0 9 5 4 11 -4 6 -11 18 -14 26 -3
8 -5 3 -4 -11z"/>
<path d="M2040 3642 c0 -12 3 -12 15 -2 8 7 15 13 15 15 0 1 -7 2 -15 2 -8 0
-15 -7 -15 -15z"/>
<path d="M2565 3630 c3 -5 8 -10 11 -10 2 0 4 5 4 10 0 6 -5 10 -11 10 -5 0
-7 -4 -4 -10z"/>
<path d="M2055 3590 c3 -5 8 -10 11 -10 2 0 4 5 4 10 0 6 -5 10 -11 10 -5 0
-7 -4 -4 -10z"/>
<path d="M2640 3575 c0 -8 8 -15 18 -14 10 0 12 3 4 6 -6 2 -10 9 -6 14 3 5 0
9 -5 9 -6 0 -11 -7 -11 -15z"/>
<path d="M2609 3561 c7 -12 6 -22 -2 -30 -9 -10 -8 -11 6 -6 21 9 23 41 2 49
-12 4 -13 2 -6 -13z"/>
<path d="M2540 3552 c6 -13 14 -21 18 -18 3 4 -2 14 -12 24 -18 16 -18 16 -6
-6z"/>
<path d="M2355 3540 c-8 -13 5 -13 25 0 13 8 13 10 -2 10 -9 0 -20 -4 -23 -10z"/>
<path d="M2395 3520 c3 -5 8 -10 11 -10 2 0 4 5 4 10 0 6 -5 10 -11 10 -5 0
-7 -4 -4 -10z"/>
<path d="M2560 3520 c-13 -8 -12 -10 3 -10 9 0 17 5 17 10 0 12 -1 12 -20 0z"/>
<path d="M2620 3510 c0 -5 7 -10 16 -10 8 0 12 5 9 10 -3 6 -10 10 -16 10 -5
0 -9 -4 -9 -10z"/>
<path d="M2436 3498 c3 -5 10 -6 15 -3 13 9 11 12 -6 12 -8 0 -12 -4 -9 -9z"/>
<path d="M2531 3491 c13 -11 26 -18 28 -16 6 6 -27 35 -39 35 -7 0 -2 -9 11
-19z"/>
<path d="M2336 3486 c4 -10 1 -16 -7 -16 -7 0 -10 -2 -7 -5 3 -3 18 1 34 10
16 8 24 15 17 15 -6 0 -19 3 -27 6 -12 5 -15 2 -10 -10z"/>
<path d="M2578 3488 c9 -9 15 -9 24 0 9 9 7 12 -12 12 -19 0 -21 -3 -12 -12z"/>
<path d="M2490 3475 c0 -10 9 -15 27 -15 29 0 29 2 -4 19 -19 10 -23 9 -23 -4z"/>
<path d="M2426 3463 c-6 -14 -5 -15 5 -6 7 7 10 15 7 18 -3 3 -9 -2 -12 -12z"/>
<path d="M2626 3465 c18 -14 18 -14 0 -15 -16 0 -17 -2 -5 -16 12 -14 14 -14
20 3 13 32 10 43 -13 43 -21 0 -21 0 -2 -15z"/>
<path d="M2700 3461 c0 -6 4 -13 10 -16 6 -3 7 1 4 9 -7 18 -14 21 -14 7z"/>
<path d="M2347 3454 c-3 -4 0 -13 8 -20 18 -18 31 -18 16 0 -9 11 -9 15 1 19
9 4 8 6 -3 6 -9 1 -18 -2 -22 -5z"/>
<path d="M2549 3457 c-1 -4 -2 -12 -3 -18 0 -7 -10 -15 -21 -20 -19 -7 -19 -8
2 -8 21 -1 42 33 29 46 -3 4 -7 3 -7 0z"/>
<path d="M2668 3438 c2 -10 6 -18 7 -18 1 0 5 8 7 18 3 11 0 19 -7 19 -7 0
-10 -8 -7 -19z"/>
<path d="M2716 3415 c-3 -8 -1 -15 4 -15 6 0 10 7 10 15 0 8 -2 15 -4 15 -2 0
-6 -7 -10 -15z"/>
<path d="M2595 3405 c4 -11 8 -26 8 -32 1 -19 10 -15 29 11 17 23 17 24 -3 19
-12 -4 -25 0 -31 8 -7 10 -8 9 -3 -6z"/>
<path d="M2416 3398 c5 -8 0 -9 -14 -6 -12 4 -25 2 -28 -3 -3 -5 -10 -7 -15
-4 -5 3 -6 -1 -3 -9 4 -9 11 -13 18 -8 6 4 20 7 31 7 11 0 21 8 23 18 2 9 -2
17 -8 17 -6 0 -8 -5 -4 -12z"/>
<path d="M2486 3394 c-8 -22 -4 -25 11 -9 7 8 9 16 4 19 -5 3 -12 -1 -15 -10z"/>
<path d="M2554 3386 c3 -21 16 -33 16 -15 0 12 2 11 11 -1 8 -12 10 -12 7 5
-2 11 -11 21 -20 23 -10 2 -16 -3 -14 -12z"/>
<path d="M2456 3362 c-4 -7 -2 -12 4 -12 6 0 8 -11 6 -25 -3 -15 0 -25 7 -25
7 0 13 14 14 30 1 17 -2 28 -7 25 -4 -3 -10 0 -12 7 -3 9 -6 9 -12 0z"/>
<path d="M2507 3353 c-12 -12 -7 -30 8 -30 17 0 18 6 7 25 -5 7 -11 9 -15 5z"/>
<path d="M2422 3324 c4 -3 -3 -15 -15 -25 -13 -11 -17 -18 -9 -19 7 0 10 -5 7
-10 -5 -8 -11 -8 -20 0 -9 8 -14 7 -18 -3 -4 -11 2 -13 24 -11 16 2 29 -1 29
-6 0 -6 7 -10 15 -10 8 0 15 5 15 10 0 6 -6 10 -14 10 -8 0 -17 7 -20 16 -8
20 -8 24 2 23 32 -5 44 14 15 25 -10 4 -14 4 -11 0z"/>
<path d="M2245 3310 c-3 -5 1 -10 9 -10 9 0 16 5 16 10 0 6 -4 10 -9 10 -6 0
-13 -4 -16 -10z"/>
<path d="M2580 3309 c0 -12 59 -16 64 -4 2 7 -8 11 -30 11 -19 -1 -34 -4 -34
-7z"/>
<path d="M2560 3280 c0 -5 7 -10 16 -10 8 0 12 5 9 10 -3 6 -10 10 -16 10 -5
0 -9 -4 -9 -10z"/>
<path d="M2471 3254 c0 -11 3 -14 6 -6 3 7 2 16 -1 19 -3 4 -6 -2 -5 -13z"/>
<path d="M1938 3226 c-9 -8 -18 -13 -20 -10 -3 2 -13 -7 -23 -22 -12 -19 -16
-38 -12 -67 8 -62 6 -60 217 -133 41 -14 81 -29 88 -33 14 -8 6 -12 -178 -76
-58 -21 -113 -44 -122 -53 -21 -17 -25 -91 -7 -124 10 -18 65 -48 89 -48 10 0
8 33 -6 95 -4 16 -3 17 4 5 5 -8 12 -32 16 -52 8 -42 13 -44 62 -23 19 8 50
22 69 31 20 8 43 17 53 19 9 2 62 21 117 43 55 22 125 47 156 57 l56 18 189
-63 c104 -34 224 -75 266 -91 96 -36 117 -36 152 0 23 24 27 35 24 77 l-3 49
-99 40 c-61 25 -111 40 -130 38 -23 -2 -26 -1 -12 5 16 7 10 11 -30 26 -27 10
-52 22 -56 25 -4 4 58 31 138 60 80 29 148 59 151 67 2 7 12 10 20 7 26 -10
12 91 -17 122 -25 27 -50 33 -50 13 0 -10 -3 -9 -9 1 -7 11 -16 11 -52 -2 -24
-8 -63 -21 -86 -28 -27 -8 -43 -18 -43 -28 0 -12 -2 -13 -8 -4 -6 10 -25 7
-83 -12 -95 -32 -109 -41 -89 -55 8 -5 10 -10 4 -10 -5 0 -15 5 -22 12 -8 8
-15 8 -25 0 -8 -7 -16 -10 -19 -7 -3 3 -24 -1 -47 -10 -40 -14 -45 -13 -159
26 -64 23 -128 43 -142 46 -14 3 -29 9 -35 13 -5 5 -28 11 -50 15 -22 4 -44
11 -50 15 -18 13 -78 30 -125 36 -35 4 -51 2 -62 -10z m1062 -66 c-8 -5 -19
-10 -25 -10 -5 0 -3 5 5 10 8 5 20 10 25 10 6 0 3 -5 -5 -10z m-996 -34 c-4
-17 0 -27 13 -35 10 -6 13 -11 6 -11 -6 0 -15 5 -18 10 -4 6 -15 1 -26 -12
-23 -26 -22 -19 6 35 22 43 28 47 19 13z m786 -6 c-37 -28 -50 -24 -15 4 17
13 32 22 35 19 3 -2 -6 -13 -20 -23z m280 5 c0 -14 -58 -51 -66 -42 -3 2 9 10
26 17 23 10 30 18 27 32 -3 10 -1 16 4 12 5 -3 9 -12 9 -19z m-160 0 c-14 -8
-29 -14 -35 -14 -5 0 1 6 15 14 14 8 30 14 35 14 6 0 -1 -6 -15 -14z m-640
-35 c8 -5 11 -10 5 -10 -5 0 -17 5 -25 10 -8 5 -10 10 -5 10 6 0 17 -5 25 -10z
m565 0 c-3 -5 -11 -10 -16 -10 -6 0 -7 5 -4 10 3 6 11 10 16 10 6 0 7 -4 4
-10z m-768 -16 c-3 -3 -12 -4 -19 -1 -8 3 -5 6 6 6 11 1 17 -2 13 -5z m923 2
c0 -8 -77 -56 -91 -56 -7 1 3 10 23 20 20 11 40 24 43 30 6 9 25 14 25 6z
m-883 -12 c-3 -3 -12 -4 -19 -1 -8 3 -5 6 6 6 11 1 17 -2 13 -5z m663 -3 c0
-8 -20 -18 -75 -35 -14 -5 49 33 73 43 1 1 2 -3 2 -8z m110 -45 c0 -2 -9 -6
-20 -9 -11 -3 -18 -1 -14 4 5 9 34 13 34 5z m-607 -23 c-7 -2 -19 -2 -25 0 -7
3 -2 5 12 5 14 0 19 -2 13 -5z m217 -37 c0 -2 -9 -6 -20 -9 -11 -3 -18 -1 -14
4 5 9 34 13 34 5z m290 -42 c0 -2 -9 0 -20 6 -11 6 -20 13 -20 16 0 2 9 0 20
-6 11 -6 20 -13 20 -16z m-435 6 c-3 -5 -14 -10 -23 -10 -15 0 -15 2 -2 10 20
13 33 13 25 0z m512 -13 c10 -11 -30 -8 -47 3 -11 7 -8 8 13 6 15 -1 30 -6 34
-9z m-637 -17 c-8 -5 -22 -9 -30 -9 -10 0 -8 3 5 9 27 12 43 12 25 0z m547
-16 c-3 -3 -12 -4 -19 -1 -8 3 -5 6 6 6 11 1 17 -2 13 -5z m-762 -54 c-3 -5
-12 -10 -18 -10 -7 0 -6 4 3 10 19 12 23 12 15 0z m277 -6 c-17 -12 -26 -12
-39 -4 -14 9 -14 10 -2 7 9 -3 22 -1 30 4 24 15 34 10 11 -7z m558 -39 c14 -8
21 -14 15 -14 -5 0 -21 6 -35 14 -14 8 -20 14 -15 14 6 0 21 -6 35 -14z m203
-38 c-5 -9 -16 -11 -33 -6 l-25 7 28 1 c18 1 27 7 28 19 0 9 3 12 5 5 3 -7 2
-18 -3 -26z m-953 19 c0 -2 -7 -7 -16 -10 -8 -3 -12 -2 -9 4 6 10 25 14 25 6z
m813 -3 c-7 -2 -19 -2 -25 0 -7 3 -2 5 12 5 14 0 19 -2 13 -5z m-886 -29 c-3
-3 -12 -4 -19 -1 -8 3 -5 6 6 6 11 1 17 -2 13 -5z"/>
<path d="M2340 2282 c0 -82 -3 -210 -7 -285 l-6 -137 81 0 82 0 0 48 c0 34 5
54 18 65 16 15 20 11 62 -49 l45 -64 83 0 83 0 -77 103 c-43 56 -81 107 -86
113 -6 8 16 41 63 95 l72 84 -81 3 -81 3 -43 -47 -43 -47 -5 129 -5 129 -77 3
-78 3 0 -149z"/>
<path d="M855 2375 c-93 -7 -172 -13 -175 -14 -5 -1 6 -258 12 -306 3 -18 10
-19 98 -17 52 1 128 5 168 8 l72 6 0 -41 0 -41 -134 0 c-73 0 -148 -3 -165 -6
-30 -6 -31 -9 -31 -55 l0 -49 235 0 235 0 0 53 c0 30 -3 102 -7 162 l-6 107
-96 -6 c-53 -3 -127 -7 -166 -8 l-70 -2 0 35 0 34 155 8 c85 4 160 9 165 11 6
2 8 29 5 67 l-5 64 -60 1 c-33 1 -136 -4 -230 -11z"/>
<path d="M3805 2313 c12 -128 15 -141 38 -147 12 -3 25 -6 29 -6 8 0 15 53 21
153 l5 67 -50 0 -50 0 7 -67z"/>
<path d="M3258 2343 c-15 -4 -6 -26 57 -147 l75 -143 0 -96 0 -97 89 0 c103 0
101 -3 101 117 l0 72 90 142 c50 78 90 146 90 151 0 5 -35 8 -77 6 l-77 -3
-56 -97 c-30 -53 -57 -99 -60 -102 -3 -3 -26 41 -51 97 l-45 102 -59 2 c-33 0
-68 -1 -77 -4z"/>
<path d="M1507 2333 c-217 -3 -289 -6 -292 -16 -2 -6 -6 -112 -7 -235 l-3
-222 68 0 67 0 0 165 0 165 66 0 66 0 -4 -162 -3 -163 68 -3 69 -3 -4 178 -3
178 51 3 52 3 7 -181 7 -180 69 0 69 0 -2 238 -3 237 -25 0 c-14 1 -155 -1
-313 -2z"/>
<path d="M3928 2273 c-2 -5 -2 -61 0 -125 l3 -118 115 0 114 0 0 -40 0 -41
-115 7 -115 7 0 -52 0 -51 195 0 195 0 0 119 0 118 -67 6 c-38 4 -87 7 -110 7
l-43 0 0 40 0 40 110 0 110 0 0 45 0 45 -194 0 c-107 0 -196 -3 -198 -7z"/>
<path d="M2817 2263 c-3 -5 0 -97 6 -205 l11 -198 189 0 189 0 -6 23 c-3 12
-6 34 -6 50 l0 27 -109 0 c-90 0 -110 3 -115 16 -14 37 -7 44 47 44 28 0 83 3
120 7 l68 6 -6 101 c-10 151 13 136 -200 136 -101 0 -186 -3 -188 -7z m271
-115 l3 -38 -64 0 c-59 0 -65 2 -71 23 -3 12 -6 27 -6 34 0 12 50 21 105 19
27 -1 30 -4 33 -38z"/>
<path d="M1878 2115 c-1 -80 -2 -171 -3 -202 l0 -58 71 3 c40 2 74 0 77 -5 2
-4 -1 -125 -9 -268 -7 -143 -13 -272 -13 -287 l-1 -28 208 0 209 0 12 156 c7
86 11 157 9 159 -2 2 -67 7 -146 11 l-142 7 0 76 c0 42 3 100 6 129 l7 52 68
0 69 0 0 93 c0 52 -3 142 -7 200 l-6 107 -204 0 -203 0 -2 -145z m272 -45 l0
-80 -65 0 -65 0 0 43 c0 23 -3 59 -6 80 l-7 37 72 0 71 0 0 -80z m150 -639 c0
-28 -3 -52 -7 -54 -5 -3 -41 -2 -80 0 l-73 6 0 48 0 49 80 0 80 0 0 -49z"/>
<path d="M705 1788 c-3 -13 -6 -134 -7 -271 l-3 -247 248 0 247 0 0 123 0 123
-37 10 -38 10 38 19 37 19 0 118 0 118 -240 0 -240 0 -5 -22z m345 -133 l0
-55 -115 0 -115 0 0 55 0 55 115 0 115 0 0 -55z m3 -182 c3 -5 2 -32 0 -60
l-6 -53 -113 0 -114 0 0 55 0 54 63 4 c127 7 166 7 170 0z"/>
<path d="M2906 1714 c-3 -9 -6 -112 -6 -230 l0 -214 230 0 230 0 -6 58 c-3 31
-7 63 -10 70 -2 9 -42 12 -154 12 l-150 0 0 90 0 90 154 0 154 0 6 31 c3 17 6
46 6 64 0 31 -2 33 -46 39 -26 3 -127 6 -224 6 -153 0 -179 -2 -184 -16z"/>
<path d="M1372 1713 l-83 -4 3 -52 3 -52 87 1 c80 1 87 -1 92 -20 11 -42 8
-43 -91 -50 -54 -4 -113 -10 -132 -13 l-33 -6 6 -66 c4 -36 9 -92 12 -123 l6
-58 195 0 194 0 -6 133 c-3 72 -8 174 -11 225 l-6 92 -76 -2 c-43 -1 -114 -4
-160 -5z m108 -308 c0 -44 -1 -45 -32 -45 -18 0 -50 3 -70 6 -36 6 -38 8 -38
45 l0 39 70 0 70 0 0 -45z"/>
<path d="M3390 1485 l0 -215 245 0 245 0 0 215 0 215 -85 0 -84 0 -3 -157 -3
-158 -72 -3 -73 -3 0 161 0 160 -85 0 -85 0 0 -215z"/>
<path d="M1683 1683 c-23 -4 -23 -5 -23 -209 l0 -204 75 0 75 0 0 155 0 155
25 0 c22 0 25 -4 25 -36 l0 -35 53 3 52 3 3 88 3 87 -133 -1 c-73 -1 -143 -4
-155 -6z"/>
<path d="M2477 1673 c-3 -5 0 -97 6 -205 l11 -198 189 0 189 0 -6 23 c-3 12
-6 34 -6 50 l0 27 -109 0 c-90 0 -110 3 -115 16 -14 37 -7 44 47 44 28 0 83 3
120 7 l68 6 -6 101 c-10 151 13 136 -200 136 -101 0 -186 -3 -188 -7z m271
-115 l3 -38 -64 0 c-59 0 -65 2 -71 23 -3 12 -6 27 -6 34 0 12 50 21 105 19
27 -1 30 -4 33 -38z"/>
<path d="M3914 1553 c3 -71 9 -163 13 -205 l6 -78 183 0 c204 0 192 -5 178 69
l-6 31 -109 0 -109 0 0 30 c0 29 2 30 43 30 24 0 78 3 121 6 l76 7 -4 31 c-3
17 -8 70 -12 119 l-6 87 -190 0 -191 0 7 -127z m268 12 c2 -20 2 -38 -1 -40
-2 -3 -33 -5 -68 -5 l-63 0 0 34 c0 32 3 35 33 39 90 11 94 10 99 -28z"/>
</g>
</svg>
